# xmcd CD Database Entry
#
# Track frame offsets:
# 150
# 17064
# 42824
# 62693
# 90218
# 108177
# 131368
# 147165
# 170427
# 187438
# 212141
#
# Disc length: 3102 seconds
#
# Revision: 1
# Processed by: cddbd v1.4PL0 Copyright (c) Steve Scherf et al.
# Submitted via: tcd 2.0b
#
DISCID=920c1c0b
DTITLE=Solomon Burke - Don't Give Up On Me
DYEAR=1900
DGENRE=
TTITLE0=Don't Give Up On Me
TTITLE1=Fast Train
TTITLE2=Diamond in Your Mind
TTITLE3=Flesh and Blood
TTITLE4=Soul Searchin'
TTITLE5=Only a Dream
TTITLE6=The Judgement
TTITLE7=Stepchild
TTITLE8=The Other Side of the Coin
TTITLE9=None of Us Are Free (with the Blind Boys of Alabama)
TTITLE10=Sit This One Out
EXTD=
EXTT0=
EXTT1=
EXTT2=
EXTT3=
EXTT4=
EXTT5=
EXTT6=
EXTT7=
EXTT8=
EXTT9=
EXTT10=
PLAYORDER=
